<?xml version="1.0" encoding="utf-8"?>
<svg width="52" height="52" viewBox="0 0 52 52" fill="none" xmlns="http://www.w3.org/2000/svg">
  <g>
    <g>
      <path d="M26 0L26 0C40.3614 0 52 11.6386 52 26L52 26C52 40.3614 40.3614 52 26 52L26 52C11.6386 52 0 40.3614 0 26L0 26C0 11.6386 11.6386 0 26 0L26 0Z" fill="#0097A7" />
      <path d="M2 0L4.93333 0C6.03805 0 6.93333 0.89528 6.93333 2L6.93333 27.4667C6.93333 28.5714 6.03805 29.4667 4.93333 29.4667L2 29.4667C0.895281 29.4667 0 28.5714 0 27.4667L0 2C0 0.89528 0.895281 0 2 0L2 0Z" fill="#FFFFFF" transform="translate(23 12)" />
      <path d="M2 0L4.93333 0C6.03805 0 6.93333 0.89528 6.93333 2L6.93333 27.4667C6.93333 28.5714 6.03805 29.4667 4.93333 29.4667L2 29.4667C0.895281 29.4667 0 28.5714 0 27.4667L0 2C0 0.89528 0.895281 0 2 0L2 0Z" fill="#FFFFFF" transform="matrix(0 -1 1 0 11 30)" />
    </g>
  </g>
</svg>