<?xml version="1.0" encoding="utf-8"?>
<svg width="22.001" height="22.001" viewBox="0 0 22.001 22.001" fill="none" xmlns="http://www.w3.org/2000/svg">
  <path d="M3.00031 0.000274658C2.74438 0.000274658 2.48822 0.0977478 2.29327 0.293243C2.29327 0.293243 0.293274 2.29324 0.293274 2.29324C-0.0977783 2.68427 -0.0977783 3.31732 0.293274 3.70731C0.293274 3.70731 7.58624 11.0003 7.58624 11.0003C7.58624 11.0003 0.293274 18.2932 0.293274 18.2932C-0.0977783 18.6843 -0.0977783 19.3173 0.293274 19.7073C0.293274 19.7073 2.29327 21.7073 2.29327 21.7073C2.68427 22.0983 3.31732 22.0983 3.70734 21.7073C3.70734 21.7073 11.0003 14.4143 11.0003 14.4143C11.0003 14.4143 18.2933 21.7073 18.2933 21.7073C18.6832 22.0983 19.3173 22.0983 19.7073 21.7073C19.7073 21.7073 21.7073 19.7073 21.7073 19.7073C22.0983 19.3163 22.0983 18.6833 21.7073 18.2932C21.7073 18.2932 14.4144 11.0003 14.4144 11.0003C14.4144 11.0003 21.7073 3.70731 21.7073 3.70731C22.0983 3.31732 22.0983 2.68326 21.7073 2.29324C21.7073 2.29324 19.7073 0.293243 19.7073 0.293243C19.3163 -0.0977478 18.6832 -0.0977478 18.2933 0.293243C18.2933 0.293243 11.0003 7.58621 11.0003 7.58621C11.0003 7.58621 3.70734 0.293243 3.70734 0.293243C3.51184 0.0977478 3.25616 0.000274658 3.00031 0.000274658C3.00031 0.000274658 3.00031 0.000274658 3.00031 0.000274658Z" fill="#FFFFFF" />
</svg>