<?xml version="1.0" encoding="utf-8"?>
<svg width="31.702" height="33.333" viewBox="0 0 31.702 33.333" fill="none" xmlns="http://www.w3.org/2000/svg">
  <path d="M15.8511 0C12.9275 0 10.4931 2.18453 10.0845 5C10.0845 5 4.38303 5 4.38303 5C4.31207 4.98785 4.24018 4.98186 4.16819 4.98209C4.10598 4.98344 4.04396 4.98942 3.98264 5C3.98264 5 1.2678 5 1.2678 5C0.817005 4.99362 0.397699 5.23047 0.170443 5.61984C-0.0568142 6.00921 -0.0568137 6.49079 0.170444 6.88016C0.397702 7.26953 0.817008 7.50637 1.2678 7.5C1.2678 7.5 3.05003 7.5 3.05003 7.5C3.05003 7.5 5.14801 29.1911 5.14801 29.1911C5.37391 31.5299 7.36095 33.3333 9.71018 33.3333C9.71018 33.3333 21.9904 33.3333 21.9904 33.3333C24.3398 33.3333 26.3268 31.5301 26.5526 29.1911C26.5526 29.1911 28.6522 7.5 28.6522 7.5C28.6522 7.5 30.4345 7.5 30.4345 7.5C30.8853 7.50637 31.3046 7.26953 31.5318 6.88016C31.7591 6.49078 31.7591 6.00921 31.5318 5.61984C31.3046 5.23047 30.8853 4.99362 30.4345 5C30.4345 5 27.7212 5 27.7212 5C27.5886 4.97849 27.4534 4.97849 27.3209 5C27.3209 5 21.6177 5 21.6177 5C21.2091 2.18453 18.7747 0 15.8511 0C15.8511 0 15.8511 0 15.8511 0ZM15.8511 2.5C17.4171 2.5 18.7018 3.5568 19.0689 5C19.0689 5 12.6334 5 12.6334 5C13.0005 3.5568 14.2852 2.5 15.8511 2.5C15.8511 2.5 15.8511 2.5 15.8511 2.5ZM5.55979 7.5L26.1408 7.5C26.1408 7.5 24.064 28.9502 24.064 28.9502C23.9598 30.0295 23.0744 30.8333 21.9905 30.8333C21.9905 30.8333 9.71018 30.8333 9.71018 30.8333C8.62775 30.8333 7.74072 30.028 7.63661 28.9502C7.63661 28.9502 5.55979 7.5 5.55979 7.5L5.55979 7.5ZM12.9149 11.6488C12.2252 11.6595 11.6746 12.2269 11.6845 12.9167C11.6845 12.9167 11.6845 25.4167 11.6845 25.4167C11.6781 25.8675 11.9149 26.2868 12.3043 26.514C12.6937 26.7413 13.1753 26.7413 13.5646 26.514C13.954 26.2868 14.1908 25.8675 14.1845 25.4167C14.1845 25.4167 14.1845 12.9167 14.1845 12.9167C14.1893 12.5787 14.0571 12.2531 13.8179 12.0142C13.5787 11.7753 13.2529 11.6435 12.9149 11.6488C12.9149 11.6488 12.9149 11.6488 12.9149 11.6488ZM18.7483 11.6488C18.0585 11.6595 17.5079 12.2269 17.5178 12.9167C17.5178 12.9167 17.5178 25.4167 17.5178 25.4167C17.5114 25.8675 17.7483 26.2868 18.1376 26.514C18.527 26.7413 19.0086 26.7413 19.3979 26.514C19.7873 26.2868 20.0242 25.8675 20.0178 25.4167C20.0178 25.4167 20.0178 12.9167 20.0178 12.9167C20.0226 12.5787 19.8904 12.2531 19.6512 12.0142C19.412 11.7753 19.0863 11.6435 18.7483 11.6488C18.7483 11.6488 18.7483 11.6488 18.7483 11.6488Z" fill="#000000" transform="translate(0 0)" />
</svg>