<?xml version="1.0" encoding="utf-8"?>
<svg width="30.391" height="30.391" viewBox="0 0 30.391 30.391" fill="none" xmlns="http://www.w3.org/2000/svg">
  <path d="M25.2344 0C23.9258 0 22.6172 0.507813 21.6016 1.52344C21.6016 1.52344 1.83594 21.2891 1.83594 21.2891L1.75781 21.6797L0.390625 28.5547L0 30.3906L1.83594 30L8.71094 28.6328L9.10156 28.5547C9.10156 28.5547 28.8672 8.78906 28.8672 8.78906C30.8984 6.75781 30.8984 3.55469 28.8672 1.52344C27.8516 0.507813 26.543 0 25.2344 0ZM25.2344 2.38281C25.8643 2.38281 26.499 2.6709 27.1094 3.28125C28.3252 4.49707 28.3252 5.81543 27.1094 7.03125C27.1094 7.03125 26.2109 7.89062 26.2109 7.89062L22.5 4.17969C22.5 4.17969 23.3594 3.28125 23.3594 3.28125C23.9697 2.6709 24.6045 2.38281 25.2344 2.38281ZM20.7422 5.9375L24.4531 9.64844C24.4531 9.64844 9.33594 24.7656 9.33594 24.7656C8.51562 23.1641 7.22656 21.875 5.625 21.0547C5.625 21.0547 20.7422 5.9375 20.7422 5.9375ZM4.02344 23.0859C5.52246 23.6914 6.69922 24.8682 7.30468 26.3672C7.30468 26.3672 3.20312 27.1875 3.20312 27.1875C3.20312 27.1875 4.02344 23.0859 4.02344 23.0859Z" fill="#000000" transform="translate(0 0)" />
</svg>