<?xml version="1.0" encoding="utf-8"?>
<svg width="30" height="30" viewBox="0 0 19 19" fill="none" xmlns="http://www.w3.org/2000/svg">
  <g>
    <path d="M8.74 0C3.91762 0 0 3.91762 0 8.74C0 13.5624 3.91762 17.48 8.74 17.48C13.5624 17.48 17.48 13.5624 17.48 8.74C17.48 3.91762 13.5624 0 8.74 0C8.74 0 8.74 0 8.74 0ZM8.73997 0.760018C13.1516 0.760018 16.72 4.32839 16.72 8.74002C16.72 13.1516 13.1516 16.72 8.73997 16.72C4.32835 16.72 0.759969 13.1516 0.759969 8.74002C0.759969 4.32839 4.32835 0.760018 8.73997 0.760018C8.73997 0.760018 8.73997 0.760018 8.73997 0.760018ZM11.7764 5.31482C11.6761 5.31719 11.5809 5.35907 11.5114 5.43134C11.5114 5.43134 8.74008 8.20267 8.74008 8.20267C8.74008 8.20267 5.96875 5.43134 5.96875 5.43134C5.89721 5.3578 5.79897 5.31631 5.69637 5.3163C5.54174 5.31634 5.40255 5.41007 5.34436 5.55333C5.28618 5.6966 5.32059 5.86084 5.43141 5.96869C5.43141 5.96869 8.20273 8.74001 8.20273 8.74001C8.20273 8.74001 5.43141 11.5113 5.43141 11.5113C5.33214 11.6067 5.29215 11.7482 5.32687 11.8813C5.36158 12.0145 5.46558 12.1185 5.59874 12.1532C5.73191 12.1879 5.87344 12.148 5.96875 12.0487C5.96875 12.0487 8.74008 9.27736 8.74008 9.27736C8.74008 9.27736 11.5114 12.0487 11.5114 12.0487C11.6067 12.148 11.7482 12.1879 11.8814 12.1532C12.0146 12.1185 12.1186 12.0145 12.1533 11.8813C12.188 11.7482 12.148 11.6067 12.0487 11.5113C12.0487 11.5113 9.27742 8.74001 9.27742 8.74001C9.27742 8.74001 12.0487 5.96869 12.0487 5.96869C12.1617 5.86007 12.1964 5.69326 12.1361 5.54861C12.0759 5.40396 11.933 5.31112 11.7764 5.31482C11.7764 5.31482 11.7764 5.31482 11.7764 5.31482Z" fill="#00BFC9" transform="translate(0.76 0.76)" />
  </g>
</svg>