<?xml version="1.0" encoding="utf-8"?>
<svg width="22" height="22.001" viewBox="0 0 22 22.001" fill="none" xmlns="http://www.w3.org/2000/svg">
  <path d="M3.00031 0.000282288C2.74438 0.000282288 2.48822 0.0977497 2.29327 0.293251C2.29327 0.293251 0.293274 2.29325 0.293274 2.29325C-0.0977783 2.68425 -0.0977783 3.31731 0.293274 3.70731C0.293274 3.70731 7.58624 11.0003 7.58624 11.0003C7.58624 11.0003 0.293274 18.2933 0.293274 18.2933C-0.0977783 18.6842 -0.0977783 19.3173 0.293274 19.7073C0.293274 19.7073 2.29327 21.7073 2.29327 21.7073C2.68427 22.0983 3.31732 22.0983 3.70734 21.7073C3.70734 21.7073 11.0003 14.4143 11.0003 14.4143C11.0003 14.4143 18.2933 21.7073 18.2933 21.7073C18.6832 22.0983 19.3173 22.0983 19.7073 21.7073C19.7073 21.7073 21.7073 19.7073 21.7073 19.7073C22.0983 19.3163 22.0983 18.6833 21.7073 18.2933C21.7073 18.2933 14.4144 11.0003 14.4144 11.0003C14.4144 11.0003 21.7073 3.70731 21.7073 3.70731C22.0983 3.31731 22.0983 2.68325 21.7073 2.29325C21.7073 2.29325 19.7073 0.293251 19.7073 0.293251C19.3163 -0.0977497 18.6832 -0.0977497 18.2933 0.293251C18.2933 0.293251 11.0003 7.58622 11.0003 7.58622C11.0003 7.58622 3.70734 0.293251 3.70734 0.293251C3.51184 0.0977497 3.25616 0.000282288 3.00031 0.000282288C3.00031 0.000282288 3.00031 0.000282288 3.00031 0.000282288Z" fill="#0097A7" />
</svg>