<?xml version="1.0" encoding="utf-8"?>
<svg width="40" height="40" viewBox="0 0 40 40" fill="none" xmlns="http://www.w3.org/2000/svg">
  <g>
    <path d="M16.2095 5.83985C19.8931 5.83985 22.8775 8.82423 22.8775 12.5078C22.8775 16.1875 19.8931 19.1719 16.2095 19.1719C12.5259 19.1719 9.54155 16.1875 9.54155 12.5078C9.54155 8.82423 12.5259 5.83985 16.2095 5.83985ZM16.2095 8.33985C13.9087 8.33985 12.0416 10.207 12.0416 12.5078C12.0416 14.8086 13.9087 16.6719 16.2095 16.6719C18.5103 16.6719 20.3775 14.8086 20.3775 12.5078C20.3775 10.207 18.5103 8.33985 16.2095 8.33985ZM16.2095 1.14441e-05C23.897 1.14441e-05 30.5377 5.25001 32.3775 12.6055C32.5455 13.2774 32.1392 13.9531 31.4673 14.1211C30.7994 14.2891 30.1197 13.8828 29.9517 13.2149C28.3892 6.96095 22.7447 2.50001 16.2095 2.50001C9.67046 2.50001 4.02593 6.96486 2.46343 13.2188C2.29546 13.8906 1.61968 14.2969 0.947804 14.1289C0.279835 13.9649 -0.130321 13.2852 0.037648 12.6133C1.87749 5.25392 8.51812 1.14441e-05 16.2095 1.14441e-05ZM16.2095 0L16.2095 0Z" fill="#212121" transform="translate(3.79 9.168)" />
  </g>
</svg>