<?xml version="1.0" encoding="utf-8"?>
<svg width="22.222" height="27.778" viewBox="0 0 22.222 27.778" fill="none" xmlns="http://www.w3.org/2000/svg">
  <path d="M5 0C2.23833 0 0 2.23833 0 5C0 5 0 22.7778 0 22.7778C0 25.5394 2.23833 27.7778 5 27.7778C5 27.7778 17.2222 27.7778 17.2222 27.7778C19.9839 27.7778 22.2222 25.5394 22.2222 22.7778C22.2222 22.7778 22.2222 11.1111 22.2222 11.1111C22.2222 11.1111 14.4444 11.1111 14.4444 11.1111C12.6033 11.1111 11.1111 9.61889 11.1111 7.77778C11.1111 7.77778 11.1111 0 11.1111 0L5 0C5 0 5 0 5 0ZM13.3333 0.190964C13.3333 0.190964 13.3333 7.77777 13.3333 7.77777C13.3333 8.39166 13.8311 8.88888 14.4445 8.88888C14.4445 8.88888 22.0313 8.88888 22.0313 8.88888L13.3333 0.190964L13.3333 0.190964Z" fill="#ABABAB" transform="matrix(1 0 0 1 -0 0)" />
</svg>