<?xml version="1.0" encoding="utf-8"?>
<svg width="26.667" height="33.333" viewBox="0 0 26.667 33.333" fill="none" xmlns="http://www.w3.org/2000/svg">
  <path d="M15.2867 0C15.2867 0 3.33333 0 3.33333 0C1.5 0 0 1.5 0 3.33333C0 3.33333 0 30 0 30C0 31.8333 1.5 33.3333 3.33333 33.3333C3.33333 33.3333 23.3333 33.3333 23.3333 33.3333C25.1667 33.3333 26.6667 31.8333 26.6667 30C26.6667 30 26.6667 11.38 26.6667 11.38C26.6667 10.4967 26.315 9.64833 25.69 9.02333C25.69 9.02333 17.6433 0.976667 17.6433 0.976667C17.0183 0.351667 16.17 0 15.2867 0C15.2867 0 15.2867 0 15.2867 0ZM24.1667 11.6667L15 11.6667L15 2.5L24.1667 11.6667L24.1667 11.6667Z" fill="#00BFC9" transform="translate(-0 0)" />
</svg>