<?xml version="1.0" encoding="utf-8"?>
<svg width="90" height="90" viewBox="0 0 90 90" fill="none" xmlns="http://www.w3.org/2000/svg">
  <g>
    <path d="M33.6584 0.00136137C33.0587 0.0218406 32.4813 0.233569 32.0105 0.605609C32.0105 0.605609 5.36133 21.6005 5.36133 21.6005C1.97902 24.266 0 28.3392 0 32.6454C0 32.6454 0 68.4389 0 68.4389C0 70.9956 2.13076 73.1264 4.6875 73.1264C4.6875 73.1264 23.4375 73.1264 23.4375 73.1264C25.9942 73.1264 28.125 70.9956 28.125 68.4389C28.125 68.4389 28.125 49.6889 28.125 49.6889C28.125 49.1357 28.5093 48.7514 29.0625 48.7514C29.0625 48.7514 38.4375 48.7514 38.4375 48.7514C38.9907 48.7514 39.375 49.1357 39.375 49.6889C39.375 49.6889 39.375 68.4389 39.375 68.4389C39.375 70.9956 41.5058 73.1264 44.0625 73.1264C44.0625 73.1264 62.8125 73.1264 62.8125 73.1264C65.3692 73.1264 67.5 70.9956 67.5 68.4389C67.5 68.4389 67.5 32.6454 67.5 32.6454C67.5 28.3392 65.521 24.266 62.1387 21.6005C62.1387 21.6005 35.4895 0.605609 35.4895 0.605609C34.9694 0.19475 34.3209 -0.019248 33.6584 0.00136137C33.6584 0.00136137 33.6584 0.00136137 33.6584 0.00136137ZM33.75 6.3954C33.75 6.3954 58.6597 26.0206 58.6597 26.0206C60.6924 27.6226 61.875 30.0591 61.875 32.6454C61.875 32.6454 61.875 67.5014 61.875 67.5014L45 67.5014C45 67.5014 45 49.6889 45 49.6889C45 46.0983 42.028 43.1264 38.4375 43.1264C38.4375 43.1264 29.0625 43.1264 29.0625 43.1264C25.472 43.1264 22.5 46.0983 22.5 49.6889C22.5 49.6889 22.5 67.5014 22.5 67.5014L5.625 67.5014C5.625 67.5014 5.625 32.6454 5.625 32.6454C5.625 30.0591 6.80764 27.6226 8.84033 26.0206C8.84033 26.0206 33.75 6.3954 33.75 6.3954L33.75 6.3954Z" fill="#00BFC9" transform="translate(11.25 7.499)" />
  </g>
</svg>