<?xml version="1.0" encoding="utf-8"?>
<svg width="23.636" height="23.636" viewBox="0 0 23.636 23.636" fill="none" xmlns="http://www.w3.org/2000/svg">
  <g>
    <path d="M9.8485 0C4.42099 0 0 4.42099 0 9.8485C0 15.276 4.42099 19.697 9.8485 19.697C15.276 19.697 19.697 15.276 19.697 9.8485C19.697 4.42099 15.276 0 9.8485 0C9.8485 0 9.8485 0 9.8485 0ZM9.84849 1.9697C14.2115 1.9697 17.7273 5.48549 17.7273 9.84849C17.7273 14.2115 14.2115 17.7273 9.84849 17.7273C5.48549 17.7273 1.9697 14.2115 1.9697 9.84849C1.9697 5.48549 5.48549 1.9697 9.84849 1.9697C9.84849 1.9697 9.84849 1.9697 9.84849 1.9697ZM8.86362 4.92424L8.86362 6.89394L10.8333 6.89394L10.8333 4.92424L8.86362 4.92424L8.86362 4.92424ZM8.86362 8.86363L8.86362 14.7727L10.8333 14.7727L10.8333 8.86363L8.86362 8.86363L8.86362 8.86363Z" fill="#00BFC9" transform="translate(1.97 1.97)" />
  </g>
</svg>