<?xml version="1.0" encoding="utf-8"?>
<svg width="21" height="24" viewBox="0 0 21 24" fill="none" xmlns="http://www.w3.org/2000/svg">
  <path d="M10.5 0C6.46405 0 3.15002 2.91345 3.15002 6.46155C3.15002 6.46155 3.15002 9.23077 3.15002 9.23077L0 9.23077L0 24L21 24L21 9.23077L17.85 9.23077C17.85 9.23077 17.85 6.46155 17.85 6.46155C17.85 2.91345 14.5359 0 10.5 0ZM10.5 1.84616C13.3916 1.84616 15.75 3.91946 15.75 6.46155C15.75 6.46155 15.75 9.23077 15.75 9.23077L5.25 9.23077C5.25 9.23077 5.25 6.46155 5.25 6.46155C5.25 3.91946 7.6084 1.84616 10.5 1.84616ZM2.09998 11.0769L18.9 11.0769L18.9 22.1538L2.09998 22.1538L2.09998 11.0769Z" fill="#FF9800" />
</svg>