<?xml version="1.0" encoding="utf-8"?>
<svg width="30" height="30" viewBox="0 0 30 30" fill="none" xmlns="http://www.w3.org/2000/svg">
  <defs>
    <clipPath id="clip_path_1">
      <rect width="30" height="30" />
    </clipPath>
  </defs>
  <g clip-path="url(#clip_path_1)">
    <path d="M6.6 -3.4C1.089 -3.4 -3.4 1.089 -3.4 6.6C-3.4 12.111 1.089 16.6 6.6 16.6C8.99651 16.6 11.1974 15.749 12.9223 14.3363C12.9223 14.3363 18.893 20.307 18.893 20.307C19.1438 20.5683 19.5162 20.6735 19.8667 20.5821C20.2171 20.4908 20.4908 20.2171 20.5821 19.8667C20.6735 19.5162 20.5683 19.1438 20.307 18.893C20.307 18.893 14.3363 12.9223 14.3363 12.9223C15.749 11.1974 16.6 8.99651 16.6 6.6C16.6 1.089 12.111 -3.4 6.6 -3.4C6.6 -3.4 6.6 -3.4 6.6 -3.4ZM6.6 -1.4C11.0301 -1.4 14.6 2.16988 14.6 6.6C14.6 11.0301 11.0301 14.6 6.6 14.6C2.16988 14.6 -1.4 11.0301 -1.4 6.6C-1.4 2.16988 2.16988 -1.4 6.6 -1.4C6.6 -1.4 6.6 -1.4 6.6 -1.4Z" fill="#757575" transform="translate(6.4 6.4)" />
  </g>
</svg>